# xmcd
#
# Track frame offsets:
#  150
#  10140
#  23047
#  34680
#  46329
#  60278
#  74569
#  90666
#  106156
#  122775
#  136366
#  150519
#
# Disc length: 2203 seconds
#
# Revision: 0
# Processed by: cddbd v1.5.2PL0 Copyright (c) Steve Scherf et al.
# Submitted via: Collectorz.com_Music_Collector 6.9
#
DISCID=9108990c
DTITLE=Rick Sousley - Twang
DYEAR=1900
DGENRE=
TTITLE0=Beer Thirty
TTITLE1=She Brought Me Back To Love
TTITLE2=Mile A Minute
TTITLE3=Looking Out My Back Door
TTITLE4=Single Man
TTITLE5=Show Us Your Twang
TTITLE6=Buster
TTITLE7=Rowdy
TTITLE8=If You Could See You Through My Eyes
TTITLE9=Leave My Name Out Of This
TTITLE10=Stoned At The Jukebox
TTITLE11=If I Haven't Said I Love You
EXTD=
EXTT0=
EXTT1=
EXTT2=
EXTT3=
EXTT4=
EXTT5=
EXTT6=
EXTT7=
EXTT8=
EXTT9=
EXTT10=
EXTT11=
PLAYORDER=
